<?xml version="1.0" standalone="no"?>
<!DOCTYPE svg PUBLIC "-//W3C//DTD SVG 20010904//EN"
 "http://www.w3.org/TR/2001/REC-SVG-20010904/DTD/svg10.dtd">
<svg version="1.0" xmlns="http://www.w3.org/2000/svg"
 width="3276.000000pt" height="828.000000pt" viewBox="0 0 3276.000000 828.000000"
 preserveAspectRatio="xMidYMid meet">

<g transform="translate(0.000000,828.000000) scale(0.100000,-0.100000)"
fill="#000000" stroke="none">
<path d="M0 4140 l0 -4140 16380 0 16380 0 0 4140 0 4140 -16380 0 -16380 0 0
-4140z m3456 3553 c5 -215 3 -269 -14 -404 -22 -164 -67 -373 -102 -474 -99
-285 -309 -575 -660 -912 -308 -296 -586 -578 -654 -663 -172 -217 -300 -454
-337 -627 -29 -139 -36 -72 -19 204 14 233 34 355 85 528 69 234 149 407 275
597 118 178 243 317 505 563 472 441 645 660 775 975 45 110 97 308 115 445
14 102 26 14 31 -232z m44 171 c0 -13 -4 -24 -10 -24 -5 0 -10 14 -10 31 0 17
4 28 10 24 6 -3 10 -17 10 -31z m35 -124 c4 -80 5 -143 1 -140 -3 4 -6 34 -8
69 -1 34 -5 64 -9 67 -4 2 -6 -21 -4 -51 1 -31 -2 -58 -6 -61 -5 -3 -9 32 -9
78 0 57 3 78 10 68 7 -10 10 6 10 54 0 112 7 72 15 -84z m-17 -215 c0 -41 -4
-75 -9 -75 -5 0 -9 36 -9 81 0 44 4 78 9 75 4 -3 8 -39 9 -81z m19 13 c-3 -8
-6 -5 -6 6 -1 11 2 17 5 13 3 -3 4 -12 1 -19z m0 -100 c-3 -7 -5 -2 -5 12 0
14 2 19 5 13 2 -7 2 -19 0 -25z m50 -421 c-5 -60 2 -92 14 -61 6 14 8 8 9 -21
2 -39 2 -39 10 -11 5 16 7 33 4 38 -3 4 0 8 5 8 6 0 10 3 10 8 -1 4 -1 27 0
52 1 37 4 42 12 27 10 -17 21 -337 12 -337 -2 0 -8 10 -13 23 -9 22 -9 22 -10
-3 -1 -25 -1 -25 -10 -2 -5 12 -7 30 -3 40 3 9 2 13 -3 9 -5 -5 -11 -32 -15
-60 -4 -36 -7 -13 -8 78 -2 198 -19 133 -21 -79 -3 -566 -120 -1166 -300
-1542 -92 -194 -213 -374 -410 -614 -356 -432 -502 -734 -551 -1140 -17 -143
-15 -455 4 -620 22 -188 30 -280 24 -280 -9 0 -176 235 -230 321 -64 104 -146
266 -190 374 -127 314 -177 597 -157 883 18 264 57 424 142 595 119 239 210
349 644 787 183 184 371 380 419 435 306 351 478 670 576 1067 23 95 42 108
36 25z m73 -318 c0 -4 44 -10 98 -14 99 -6 317 -36 407 -56 359 -78 579 -160
900 -333 265 -144 493 -314 721 -541 512 -506 837 -1197 904 -1921 13 -149 18
-330 9 -369 -4 -17 -8 23 -9 95 -3 131 -3 141 -13 230 -3 30 -9 92 -13 138 -6
73 -8 80 -21 65 -13 -16 -14 -12 -10 39 2 33 0 56 -6 55 -9 -2 -20 23 -32 77
-3 15 -8 26 -11 24 -2 -3 4 -61 15 -129 34 -212 44 -379 38 -589 -12 -373 -81
-710 -213 -1047 -52 -131 -173 -385 -203 -422 l-19 -25 -60 55 c-33 30 -205
189 -382 354 -178 165 -359 331 -404 368 -119 101 -112 92 -94 119 27 41 84
242 107 373 26 150 33 287 21 429 -11 142 -33 295 -50 351 -5 17 -17 57 -26
90 -159 557 -621 1041 -1170 1223 -194 65 -306 85 -529 98 -60 3 -113 8 -116
10 -4 2 3 43 16 91 57 219 111 542 125 748 19 284 20 383 4 399 -18 18 -18 23
1 23 8 0 15 -4 15 -8z m-1453 -369 c-237 -244 -414 -540 -538 -898 -171 -496
-213 -1196 -107 -1792 40 -227 119 -517 159 -578 9 -15 10 -14 4 3 -13 36 -45
160 -45 173 0 6 7 12 16 12 11 0 14 6 8 23 -4 12 -7 31 -6 42 1 18 0 19 -9 2
-6 -9 -8 -21 -4 -26 3 -5 1 -12 -5 -16 -5 -3 -10 0 -10 7 0 7 -3 24 -6 38 -4
20 -3 22 5 10 9 -13 11 -12 10 5 0 11 -7 38 -15 60 l-14 40 4 -42 c2 -24 3
-43 1 -43 -12 0 -44 132 -49 206 -2 17 -5 35 -8 40 -3 5 -9 32 -12 59 -5 44
-4 48 8 32 13 -16 14 -16 20 -1 4 10 1 21 -5 25 -7 4 -9 17 -6 30 3 13 1 30
-6 38 -9 11 -9 15 1 19 10 3 9 10 -4 29 -12 19 -13 27 -4 33 13 8 6 215 -9
275 -4 17 -7 49 -5 73 1 31 -2 42 -12 42 -11 0 -13 -7 -8 -27 4 -19 3 -25 -3
-18 -17 17 -25 66 -11 64 27 -3 36 2 34 19 0 9 -5 20 -11 24 -6 5 -6 8 1 8 6
0 12 17 13 38 1 20 5 53 9 72 5 22 11 -56 15 -215 7 -290 25 -471 68 -679 91
-442 249 -802 496 -1131 69 -91 83 -116 82 -145 -1 -31 -2 -32 -8 -10 -6 21
-14 25 -44 27 l-37 1 0 -754 c0 -415 -3 -754 -6 -754 -3 0 -24 11 -47 24 -23
13 -68 38 -100 55 -230 123 -509 332 -695 520 -244 247 -428 508 -581 825
-173 356 -273 708 -317 1106 -20 189 -15 397 16 635 11 85 18 123 50 280 91
441 333 945 637 1324 215 268 525 537 821 714 149 89 344 183 359 173 1 -1
-39 -44 -90 -96z m1371 -1115 c27 -6 41 -20 76 -73 39 -62 137 -189 182 -237
187 -202 430 -513 535 -687 226 -372 317 -689 290 -1003 l-8 -100 -2 112 c0
69 -5 114 -12 119 -6 3 -9 20 -7 36 3 16 1 31 -4 34 -4 3 -8 11 -8 17 0 8 3 8
9 -2 5 -7 11 -9 14 -4 10 17 -4 52 -24 58 -10 4 -18 9 -17 13 1 4 -2 27 -6 50
-12 66 -25 36 -15 -33 13 -86 12 -309 -2 -396 -22 -144 -100 -318 -194 -432
-116 -140 -305 -261 -476 -306 -102 -26 -296 -45 -378 -37 -69 7 -192 32 -226
46 -11 5 -41 18 -67 29 -55 23 -178 101 -227 143 -110 96 -239 287 -278 408
-63 201 -55 468 19 685 57 167 179 393 357 659 221 330 359 625 392 836 13 86
16 95 32 82 7 -5 27 -13 45 -17z m21305 -290 c42 -131 194 -208 375 -192 105
10 171 58 217 158 30 67 36 69 213 69 129 0 126 3 96 -101 -54 -183 -186 -309
-384 -364 -81 -23 -289 -27 -370 -6 -69 17 -181 70 -241 115 -82 60 -152 189
-165 301 l-7 56 128 -3 128 -3 10 -30z m-23246 -62 c-3 -10 -5 -2 -5 17 0 19
2 27 5 18 2 -10 2 -26 0 -35z m14224 -10 c11 -11 94 -268 189 -588 23 -77 51
-164 62 -194 10 -30 42 -132 70 -225 105 -357 102 -350 113 -300 4 16 11 40
17 54 9 22 35 109 99 332 10 37 25 84 33 105 8 21 24 72 36 113 12 41 25 86
30 100 4 14 22 72 40 130 18 58 51 164 75 235 23 72 49 154 56 184 8 32 20 56
31 60 9 3 258 5 552 3 l536 -2 0 -1135 0 -1135 -347 2 -348 3 0 843 c0 463 -3
842 -7 842 -4 0 -10 -12 -14 -27 -3 -16 -10 -39 -15 -53 -5 -14 -15 -50 -23
-80 -8 -30 -32 -113 -54 -185 -22 -71 -65 -215 -96 -320 -73 -245 -97 -324
-106 -355 -5 -14 -18 -59 -30 -100 -13 -41 -28 -91 -35 -110 -7 -19 -27 -87
-45 -150 -48 -173 -82 -284 -93 -298 -8 -9 -77 -12 -310 -10 l-300 3 -22 70
c-13 39 -33 104 -45 145 -39 135 -92 303 -125 405 -19 55 -43 135 -54 179 -11
43 -38 135 -60 205 -70 223 -106 342 -157 518 -27 95 -51 173 -54 173 -3 0 -5
-381 -5 -847 l0 -848 -335 0 -335 0 -3 1125 c-1 619 0 1130 2 1135 4 12 1065
10 1077 -2z m-6699 -449 l3 -406 35 49 c48 67 108 159 239 368 62 99 135 214
162 255 26 41 56 90 65 108 l16 32 455 0 c360 0 454 -3 450 -12 -8 -24 -208
-314 -371 -540 -23 -31 -76 -107 -118 -170 -42 -62 -102 -149 -133 -192 -30
-44 -55 -89 -55 -100 0 -15 3 -17 12 -8 9 9 16 6 30 -16 10 -15 18 -35 18 -45
0 -9 4 -16 10 -15 8 3 87 -101 215 -283 28 -39 77 -109 110 -155 33 -46 89
-125 125 -175 97 -137 84 -129 199 -129 57 0 101 -4 103 -10 2 -5 2 -158 0
-340 l-3 -330 -337 2 -337 3 -3 138 -3 137 -37 1 c-20 0 -80 0 -132 -1 -81 -1
-98 2 -112 17 -8 10 -84 119 -168 243 -366 537 -373 548 -407 588 l-28 34 -4
-434 c-1 -238 -4 -434 -4 -435 -5 -4 -89 -5 -434 -4 l-383 1 0 1115 0 1115
410 0 410 0 2 -406z m19118 131 l0 -275 -492 -2 -493 -3 0 -808 0 -807 -85 -1
c-47 0 -220 -3 -385 -5 -301 -4 -359 0 -361 27 0 8 -2 488 -2 1067 -1 578 -5
1052 -9 1052 -5 0 -15 -5 -23 -10 -13 -8 -15 -122 -16 -915 -1 -498 -5 -909
-8 -912 -3 -4 -6 409 -6 916 0 869 1 922 18 927 9 3 24 9 32 14 8 5 423 9 923
9 l907 1 0 -275z m-19078 219 c-2 -16 -3 -47 -4 -69 0 -34 -2 -36 -8 -15 -14
43 -12 122 3 117 7 -2 11 -16 9 -33z m17240 -28 c3 -14 1 -31 -3 -38 -6 -8 -9
1 -9 25 0 42 6 48 12 13z m-17242 -288 c0 -108 -4 -168 -9 -159 -10 16 -15
306 -6 322 4 5 8 9 11 9 2 0 4 -78 4 -172z m-7646 -141 c4 -19 3 -26 -4 -22
-5 3 -10 18 -10 32 0 32 5 28 14 -10z m10426 -28 c295 -30 535 -146 649 -313
35 -51 75 -161 91 -246 11 -59 14 -584 5 -965 l-2 -110 -326 -3 -325 -2 -6 22
c-3 13 -6 60 -6 106 0 45 -3 82 -7 82 -5 0 -16 -12 -27 -28 -45 -67 -187 -153
-321 -194 -96 -30 -323 -32 -435 -4 -253 63 -420 256 -420 486 0 255 145 433
420 515 150 45 280 58 523 53 122 -3 230 -9 240 -13 39 -16 6 86 -47 143 -60
66 -172 94 -378 93 -87 0 -168 -3 -180 -5 -152 -32 -266 -66 -342 -102 -28
-13 -56 -24 -63 -24 -10 0 -13 42 -13 205 l0 204 68 20 c180 54 336 81 547 95
68 4 240 -3 355 -15z m1816 11 c266 -21 442 -73 559 -164 53 -41 78 -71 112
-131 25 -45 28 -59 28 -150 0 -91 -3 -105 -29 -158 -17 -32 -47 -74 -69 -93
-38 -34 -149 -94 -174 -94 -30 0 -9 -18 33 -30 113 -32 222 -122 268 -220 17
-36 21 -65 21 -150 0 -100 -2 -109 -34 -174 -74 -151 -220 -246 -449 -295
-312 -67 -746 -48 -1037 43 l-100 32 -3 232 c-1 128 0 232 3 232 3 0 28 -11
55 -25 121 -61 237 -92 396 -107 213 -18 330 12 371 96 30 64 1 110 -93 145
-54 21 -73 22 -266 19 l-208 -3 2 170 3 170 155 6 c243 10 334 36 367 103 15
32 14 36 -3 72 -14 29 -33 46 -73 67 -48 24 -66 27 -150 27 -168 -1 -362 -35
-480 -87 -29 -12 -57 -23 -62 -23 -5 0 -9 87 -9 194 0 165 2 195 15 200 31 12
227 56 312 71 193 33 344 40 539 25z m9579 -15 c208 -29 353 -83 465 -171 104
-82 166 -180 204 -324 28 -107 31 -173 31 -665 l0 -470 -314 -3 c-189 -1 -319
2 -324 7 -12 12 -14 33 -16 132 l-1 77 -64 -63 c-121 -119 -305 -187 -506
-187 -121 -1 -193 10 -300 45 -36 12 -68 20 -72 19 -5 -1 -8 2 -8 8 0 5 -20
21 -44 35 -25 14 -61 44 -80 65 -94 105 -126 188 -135 355 -6 114 -7 118 -18
75 -11 -45 -11 -45 -12 -10 -1 44 41 146 58 142 7 -1 10 2 6 8 -8 12 61 105
108 147 92 81 250 141 447 169 78 11 170 15 355 12 278 -3 261 -8 230 65 -36
87 -122 140 -258 159 -186 27 -543 -31 -710 -114 -21 -11 -43 -18 -49 -16 -6
2 -9 74 -8 196 1 177 -1 192 -17 192 -16 0 -15 1 2 14 61 41 343 97 605 120
77 7 320 -4 425 -19z m6123 4 c168 -22 364 -90 456 -157 62 -46 145 -146 185
-225 18 -35 40 -104 51 -159 19 -90 20 -132 18 -595 l-3 -498 -304 -2 c-177
-1 -311 2 -321 7 -20 11 -29 52 -32 143 -1 31 -5 56 -9 55 -3 -2 -37 -31 -74
-65 -58 -54 -101 -81 -200 -124 -88 -38 -248 -62 -360 -53 -234 19 -427 128
-511 289 -40 76 -53 137 -55 266 -2 86 -4 98 -12 72 -5 -18 -14 -33 -18 -33
-12 0 -11 17 1 25 6 4 8 10 5 15 -3 5 -1 19 5 30 7 13 7 20 1 20 -10 0 -21
-34 -36 -108 -11 -55 -15 -31 -5 37 12 86 50 160 122 237 74 79 174 129 340
173 170 45 275 54 553 49 l245 -5 -6 21 c-16 51 -25 67 -59 104 -92 103 -270
133 -552 97 -144 -19 -212 -36 -326 -82 -49 -19 -90 -33 -93 -31 -2 2 -5 86
-7 186 -1 99 -5 183 -8 186 -9 10 -50 -7 -46 -18 3 -6 1 -29 -3 -51 -7 -37 -8
-36 -9 23 -1 53 2 62 17 62 9 0 41 9 70 20 109 42 341 86 522 100 121 10 346
4 458 -11z m1897 1 c111 -15 257 -56 342 -95 320 -148 319 -551 -2 -664 -36
-13 -65 -26 -65 -30 0 -4 28 -15 62 -25 113 -31 210 -108 257 -202 34 -68 45
-178 26 -260 -18 -79 -84 -184 -147 -236 -66 -54 -188 -107 -308 -133 -338
-74 -752 -52 -1142 61 -16 5 -18 24 -18 217 l0 213 -40 -4 c-25 -3 -40 0 -40
7 0 6 17 11 38 11 21 0 42 4 48 9 5 6 46 -6 104 -31 142 -59 242 -80 390 -82
109 -1 131 2 172 21 25 11 54 33 63 47 17 26 41 26 31 0 -8 -20 8 -17 28 5 44
48 36 122 -16 149 -63 32 -92 36 -302 41 l-219 6 -3 85 c-2 47 -3 113 -4 148
0 63 0 63 -26 60 -23 -3 -28 -8 -31 -43 -6 -59 -13 -56 -13 7 0 55 0 55 31 56
18 0 37 6 42 11 7 7 63 11 144 11 144 0 221 12 269 41 17 10 41 19 52 19 28 0
72 55 72 90 0 64 -80 112 -205 126 -98 10 -312 -21 -429 -62 -56 -20 -111 -38
-123 -41 l-23 -5 0 176 0 177 -27 -4 c-16 -2 -29 -10 -29 -18 -1 -8 -3 -36 -4
-64 l-3 -50 -10 63 c-6 37 -6 66 -1 71 37 35 385 114 569 130 128 11 375 7
490 -9z m-12689 -90 c7 -19 24 -71 37 -115 39 -125 218 -678 227 -700 6 -16
11 -8 25 40 9 33 32 105 50 160 19 55 43 132 55 170 35 116 122 387 140 435
l16 44 322 1 c177 0 322 -3 322 -6 0 -8 -67 -203 -110 -319 -17 -47 -45 -127
-61 -178 -17 -51 -57 -166 -90 -255 -34 -89 -83 -225 -109 -302 -80 -230 -156
-445 -184 -521 -14 -39 -26 -83 -26 -98 l0 -26 225 0 225 0 -2 -202 -3 -203
-40 -1 c-22 -1 -120 -2 -217 -3 l-178 -1 0 -190 0 -190 -356 2 -357 3 2 188 2
187 -194 0 c-107 0 -209 3 -226 6 l-31 7 0 198 0 199 214 0 c234 0 245 3 232
57 -6 23 -85 219 -116 288 -5 11 -17 43 -25 70 -9 28 -20 59 -24 70 -60 140
-261 650 -261 660 0 8 -169 456 -179 475 -5 9 -12 30 -15 48 l-8 32 299 3
c453 4 405 8 419 -33z m2106 -220 l3 -255 195 0 c107 0 204 3 214 8 18 7 19
18 13 252 -5 191 -4 245 6 245 6 1 163 1 347 2 l335 1 0 -789 0 -789 -333 0
c-184 0 -339 3 -345 7 -7 4 -11 105 -11 320 l-1 313 -210 0 -210 0 0 -320 0
-320 -334 -3 c-184 -1 -338 1 -343 6 -5 5 -11 360 -13 790 l-5 781 22 3 c13 2
168 3 345 3 l323 0 2 -255z m4118 -130 c0 -222 4 -390 9 -390 13 0 22 28 11
35 -6 4 -3 19 7 38 14 28 91 137 124 175 6 7 20 30 32 51 12 21 55 85 95 142
41 57 106 151 145 209 94 136 77 131 437 128 l275 -3 0 -790 0 -790 -260 -3
c-143 -1 -270 0 -282 3 l-23 5 -2 411 -3 411 -122 -183 c-256 -385 -426 -634
-437 -641 -6 -4 -136 -8 -288 -8 -254 0 -278 1 -286 18 -9 18 -15 1549 -6
1564 3 4 133 8 290 8 l284 0 0 -390z m-23370 350 c0 -5 -2 -10 -4 -10 -3 0 -8
5 -11 10 -3 6 -1 10 4 10 6 0 11 -4 11 -10z m7640 -67 c0 -24 -3 -33 -9 -25
-7 12 -4 62 5 62 2 0 4 -17 4 -37z m15127 -55 c-3 -8 -6 -5 -6 6 -1 11 2 17 5
13 3 -3 4 -12 1 -19z m6020 -70 c-3 -8 -6 -5 -6 6 -1 11 2 17 5 13 3 -3 4 -12
1 -19z m0 -55 c-3 -10 -5 -4 -5 12 0 17 2 24 5 18 2 -7 2 -21 0 -30z m-1910
-130 c-2 -21 -4 -4 -4 37 0 41 2 58 4 38 2 -21 2 -55 0 -75z m1910 15 c-2 -13
-4 -5 -4 17 -1 22 1 32 4 23 2 -10 2 -28 0 -40z m-28757 -62 c0 -3 -4 -8 -10
-11 -5 -3 -10 -1 -10 4 0 6 5 11 10 11 6 0 10 -2 10 -4z m806 -404 c-11 -10
-15 4 -8 28 l7 25 3 -23 c2 -13 1 -26 -2 -30z m-6 -214 l-5 -193 -5 165 c-5
169 -3 233 9 226 3 -2 4 -91 1 -198z m28210 162 c0 -5 -2 -10 -4 -10 -3 0 -8
5 -11 10 -3 6 -1 10 4 10 6 0 11 -4 11 -10z m-28161 -721 c14 -62 14 -69 0
-69 -5 0 -8 3 -6 8 3 4 -6 61 -19 127 -14 73 -23 153 -23 205 1 84 1 83 19
-68 10 -84 23 -176 29 -203z m23968 319 c-3 -7 -5 -2 -5 12 0 14 2 19 5 13 2
-7 2 -19 0 -25z m6 -48 c-7 -28 -13 -25 -13 6 0 14 4 23 9 20 5 -3 7 -15 4
-26z m-956 -132 c-2 -29 -3 -8 -3 47 0 55 1 79 3 53 2 -26 2 -71 0 -100z
m-1130 110 c-3 -8 -6 -5 -6 6 -1 11 2 17 5 13 3 -3 4 -12 1 -19z m2080 -30
c-3 -8 -6 -5 -6 6 -1 11 2 17 5 13 3 -3 4 -12 1 -19z m-2080 -25 c-3 -10 -5
-4 -5 12 0 17 2 24 5 18 2 -7 2 -21 0 -30z m-21957 -5 c0 -18 -2 -20 -9 -8 -6
8 -7 18 -5 22 9 14 14 9 14 -14z m2887 -52 c16 -7 37 -24 48 -36 l19 -21 -28
7 c-28 7 -29 6 -22 -22 27 -114 16 -182 -42 -246 -48 -53 -80 -68 -150 -68
-51 0 -67 5 -108 33 -144 96 -123 298 37 367 33 14 212 4 246 -14z m19075 -38
c2 -21 0 -38 -4 -38 -4 0 -7 24 -7 53 1 54 5 49 11 -15z m1148 -34 c0 -2 -7
-4 -15 -4 -8 0 -15 4 -15 10 0 5 7 7 15 4 8 -4 15 -8 15 -10z m965 6 c4 -6 -5
-10 -19 -10 -14 0 -26 5 -26 10 0 6 9 10 19 10 11 0 23 -4 26 -10z m-17240
-60 c3 -5 -1 -10 -10 -10 -9 0 -13 5 -10 10 3 6 8 10 10 10 2 0 7 -4 10 -10z
m-5978 -371 c30 -10 113 -91 113 -110 0 -13 -14 -11 -28 3 -6 6 -21 13 -31 15
-19 3 -20 -2 -14 -60 10 -113 -31 -193 -121 -236 -58 -29 -111 -27 -177 7
-173 88 -145 346 44 393 38 9 168 2 214 -12z m1520 0 c47 -15 103 -81 103
-122 0 -18 -4 -27 -8 -20 -6 9 -43 15 -53 8 0 0 -4 -35 -8 -78 -10 -91 -38
-136 -111 -174 -55 -29 -111 -29 -175 1 -90 42 -133 120 -121 220 9 82 81 164
157 179 34 7 178 -2 216 -14z m979 2 c47 -13 85 -44 108 -89 17 -33 17 -33 -3
-23 -27 15 -33 3 -36 -78 -2 -44 -10 -82 -24 -108 -64 -127 -224 -150 -326
-48 -101 100 -81 250 43 332 46 32 151 38 238 14z m-2992 -6 c38 -16 96 -86
96 -115 0 -21 -46 -45 -54 -27 -9 23 -26 -17 -26 -63 0 -107 -90 -196 -195
-194 -186 1 -285 227 -155 351 22 20 50 43 63 50 33 18 225 17 271 -2z m954 1
c76 -14 104 -31 129 -81 l16 -30 -27 24 c-14 14 -29 21 -33 17 -4 -4 -6 -44
-4 -90 2 -72 -1 -90 -22 -132 -30 -59 -49 -77 -105 -99 -92 -37 -215 8 -260
95 -34 66 -28 163 13 221 61 85 134 103 293 75z m560 -5 c46 -23 67 -46 87
-94 18 -43 18 -47 5 -47 -5 0 -10 7 -10 15 0 16 -29 34 -45 29 -6 -2 -9 -22
-7 -43 6 -57 -15 -140 -44 -178 -30 -39 -111 -83 -153 -83 -43 0 -134 36 -159
63 -95 101 -63 276 63 341 46 24 214 22 263 -3z m947 8 c68 -12 105 -35 134
-83 22 -34 29 -82 11 -71 -5 3 -10 14 -10 24 0 20 -36 35 -46 20 -3 -5 -2 -28
1 -52 17 -110 -62 -228 -163 -243 -58 -9 -125 8 -170 43 -41 31 -82 114 -82
165 0 77 65 172 135 196 40 14 118 14 190 1z m-2948 -286 c-1 -43 -3 -10 -3
72 0 83 2 118 3 78 2 -40 2 -107 0 -150z m11671 191 c36 -14 39 -28 18 -79
-17 -40 -17 -40 -80 -19 -132 45 -230 -43 -212 -190 6 -46 14 -63 42 -91 41
-42 87 -52 163 -36 31 6 62 12 70 14 19 3 55 -92 38 -98 -78 -29 -109 -35
-166 -35 -36 0 -82 5 -102 10 -106 30 -179 136 -179 261 0 149 79 252 213 279
52 10 151 2 195 -16z m6438 4 c7 -7 31 -50 54 -95 22 -45 45 -85 50 -88 5 -3
33 39 62 92 l53 98 69 5 c37 3 70 2 72 -2 3 -5 -42 -80 -164 -272 -17 -27 -29
-53 -26 -57 3 -5 23 -9 45 -9 39 0 39 0 39 -40 l0 -40 -46 0 -45 0 2 -57 3
-58 -62 -3 -61 -3 -3 58 -3 58 -40 5 c-39 5 -40 6 -43 48 l-3 42 39 -6 c47 -7
57 4 34 37 -47 67 -178 295 -174 303 7 13 134 -1 148 -16z m5560 7 c94 -28
158 -114 170 -227 17 -167 -84 -298 -243 -314 -130 -14 -230 36 -282 142 -48
96 -36 257 26 341 47 65 210 94 329 58z m5180 -1 c36 -9 68 -23 71 -29 2 -7
-5 -31 -16 -54 l-21 -40 -35 14 c-79 34 -178 10 -215 -50 -27 -43 -36 -122
-20 -169 33 -101 117 -126 271 -80 19 5 55 -66 46 -90 -13 -34 -193 -58 -272
-36 -55 15 -128 77 -158 134 -19 35 -22 57 -22 149 l0 108 -27 -5 c-39 -8 -36
15 7 63 78 87 242 122 391 85z m-20338 -14 c116 -53 145 -101 146 -240 1 -143
-39 -219 -139 -266 -57 -27 -154 -32 -214 -12 -42 14 -99 53 -121 82 -47 63
-63 184 -39 281 18 72 88 141 169 166 50 15 153 9 198 -11z m3718 1 c93 -42
151 -157 141 -278 -15 -190 -169 -293 -355 -238 -62 19 -104 52 -139 113 -23
39 -28 61 -31 137 -4 77 -1 99 18 142 24 57 57 91 115 121 54 29 191 30 251 3z
m440 10 c17 -1 33 -24 76 -108 30 -60 62 -128 71 -153 19 -49 26 -46 50 16 8
22 37 86 63 142 49 107 47 105 119 105 52 0 52 0 58 -75 4 -40 13 -149 22
-243 21 -241 26 -216 -47 -213 l-63 3 -6 130 c-4 72 -8 148 -8 170 l-2 40 -19
-40 c-11 -22 -37 -83 -59 -135 l-40 -95 -52 0 -51 0 -50 128 c-28 70 -54 127
-58 127 -4 0 -11 -74 -15 -165 l-7 -165 -57 0 c-32 0 -60 2 -62 4 -3 3 -1 47
3 98 25 290 37 419 42 427 3 5 20 7 38 6 18 -2 43 -3 54 -4z m979 -21 c66 -33
87 -73 83 -157 -6 -107 -58 -151 -198 -168 l-85 -10 -1 -85 -2 -85 -62 0 -63
0 2 260 1 260 32 7 c18 3 80 6 138 5 89 -2 112 -6 155 -27z m529 -35 c34 -72
162 -404 171 -446 l7 -30 -64 3 -63 3 -22 55 -22 55 -103 3 -103 3 -20 -58
-20 -58 -62 -3 c-35 -2 -63 1 -63 5 1 40 171 477 204 521 6 9 29 12 70 10 l61
-3 29 -60z m451 38 c30 -32 113 -141 171 -225 l39 -57 5 152 5 152 60 0 60 0
3 -267 2 -268 -54 0 -53 0 -106 158 c-58 87 -112 164 -122 172 -15 12 -16 1
-14 -156 l2 -169 -59 0 -59 0 -3 268 -2 267 49 0 c42 0 55 -5 76 -27z m676
-78 c28 -58 54 -107 59 -110 5 -3 34 44 65 105 l55 110 65 0 c36 0 65 -4 65
-9 0 -10 -133 -242 -164 -286 -18 -25 -22 -48 -24 -138 l-4 -108 -61 3 -62 3
-5 110 -5 110 -48 78 c-38 62 -106 187 -125 230 -2 4 28 7 68 7 l71 0 50 -105z
m3849 -165 l0 -270 -65 0 -65 0 0 220 0 220 -63 0 -63 0 -17 -140 c-9 -80 -23
-154 -33 -172 -47 -92 -106 -132 -184 -126 l-45 3 -3 47 c-3 45 -2 48 25 54
83 20 123 134 123 350 l0 84 195 0 195 0 0 -270z m660 220 l0 -50 -80 0 -80 0
0 -220 0 -221 -67 3 -68 3 -1 215 -1 215 -29 1 c-16 0 -55 1 -86 2 l-58 2 0
43 c0 24 3 47 7 50 3 4 109 7 235 7 l228 0 0 -50z m631 28 c2 -32 -2 -72 -7
-77 -2 -3 -35 -5 -73 -5 -38 -1 -72 -3 -75 -6 -3 -3 -6 -101 -7 -218 l-1 -212
-64 0 c-63 0 -64 0 -65 28 0 15 0 111 1 215 l1 187 -75 0 c-102 0 -106 2 -106
61 l0 49 235 0 235 0 1 -22z m329 -68 l0 -90 58 0 c157 -1 242 -64 242 -180 0
-78 -39 -134 -116 -165 -31 -12 -69 -15 -175 -13 l-134 3 -5 263 c-3 145 -3
266 -1 268 2 2 33 4 68 4 l63 0 0 -90z m485 -180 l0 -265 -62 -3 -63 -3 0 271
0 271 63 -3 62 -3 0 -265z m401 177 c1 -48 4 -90 6 -92 2 -3 39 38 81 90 l78
95 86 0 87 0 -45 -47 c-138 -145 -174 -185 -174 -194 0 -5 35 -47 78 -94 69
-74 83 -85 122 -91 41 -6 44 -8 49 -43 4 -20 4 -54 2 -76 -3 -22 -5 -59 -5
-83 l-1 -43 -57 3 -58 3 -3 62 c-3 55 -6 63 -27 70 -13 4 -64 55 -112 112 -48
58 -94 106 -100 109 -10 3 -13 -24 -13 -113 l0 -116 -62 3 -63 3 -3 268 -2
268 67 -3 68 -3 1 -88z m1045 76 c1 -10 0 -50 0 -90 -1 -39 2 -74 8 -77 7 -5
61 50 152 157 23 27 27 28 109 25 l85 -3 -120 -117 -120 -117 72 -73 c101
-104 173 -196 173 -222 0 -3 -31 -6 -70 -6 l-69 0 -38 47 c-55 68 -155 173
-165 173 -4 0 -8 -50 -8 -110 l0 -111 -67 3 -68 3 -3 268 -2 267 65 0 c55 0
65 -3 66 -17z m1824 -237 c0 -191 3 -250 13 -253 6 -3 12 -11 12 -19 0 -11
-17 -14 -75 -14 -46 0 -75 4 -75 11 0 5 -10 9 -22 7 -23 -3 -23 -2 -29 157 -3
88 -7 162 -8 165 -1 3 -9 -7 -17 -22 -8 -16 -19 -28 -23 -28 -5 0 -18 -15 -29
-32 -11 -18 -28 -43 -38 -55 l-18 -21 -64 59 c-34 32 -67 59 -72 59 -6 0 -10
-60 -10 -150 l0 -150 -57 0 -56 0 6 128 c4 70 7 189 7 265 l0 137 58 0 c56 0
58 -1 130 -65 40 -36 74 -65 76 -65 1 0 26 29 54 64 56 71 65 74 177 72 l60
-1 0 -249z m765 -16 l0 -271 -62 3 -63 3 -3 213 -2 212 -28 1 c-15 0 -61 2
-102 2 l-75 2 -3 -218 -2 -218 -63 3 -62 3 -3 268 -3 267 236 0 235 0 0 -270z
m587 258 c5 -7 28 -58 52 -113 23 -55 49 -113 57 -130 26 -57 104 -259 104
-273 0 -10 -16 -12 -67 -10 l-66 3 -16 47 c-9 26 -19 49 -22 53 -3 3 -56 7
-117 10 l-110 3 -7 -35 c-14 -76 -22 -83 -92 -83 l-65 0 7 33 c9 38 99 285
125 342 39 84 60 138 55 144 -3 3 -15 -1 -27 -8 -16 -10 -19 -10 -16 0 6 19
42 27 124 28 47 1 75 -3 81 -11z m571 -90 l3 -98 94 0 c52 0 98 1 103 3 4 1 7
45 8 97 l1 95 61 0 61 0 5 -240 c2 -132 2 -252 -1 -267 -5 -27 -8 -28 -64 -28
l-59 0 0 115 0 115 -105 0 -105 0 -2 -97 c0 -54 -1 -105 -2 -113 -1 -11 -16
-16 -63 -18 l-63 -3 0 271 0 271 63 -3 62 -3 3 -97z m742 -38 c0 -77 3 -140 8
-140 8 1 82 117 82 130 0 14 -14 12 -28 -2 -27 -27 -9 9 30 61 63 84 59 82
163 88 l95 6 0 -272 0 -272 -62 3 -63 3 0 172 c0 167 -1 171 -19 155 -23 -21
-216 -309 -216 -323 0 -6 -23 -9 -57 -7 l-58 3 -3 268 -2 267 65 0 65 0 0
-140z m1048 -132 l2 -268 -65 0 -65 0 0 95 0 95 -34 0 c-37 0 -53 -17 -120
-127 l-37 -63 -66 0 c-65 0 -65 0 -59 25 4 15 2 25 -4 25 -6 0 -8 6 -5 13 4 6
-3 1 -15 -13 -19 -21 -20 -25 -6 -28 26 -5 18 -17 -12 -17 l-27 0 27 51 c29
54 86 119 95 110 3 -3 0 -14 -8 -23 -7 -10 5 0 28 22 l42 40 -42 43 -42 43 0
77 c0 42 4 86 9 97 8 16 5 15 -16 -5 -13 -14 -23 -27 -22 -30 1 -3 -6 -6 -17
-6 -25 0 -24 10 4 39 55 60 122 76 312 74 l140 -2 3 -267z m1007 181 l0 -86
70 -6 c100 -9 145 -24 186 -66 85 -85 54 -213 -65 -270 -36 -18 -61 -21 -174
-21 -72 0 -133 3 -136 8 -3 6 -10 497 -7 525 1 4 29 7 64 5 l62 -3 0 -86z
m493 -181 l2 -268 -65 0 -65 0 0 270 0 271 63 -3 62 -3 3 -267z m-23572 237
c11 -11 41 -45 67 -76 45 -54 59 -77 36 -64 -5 4 9 -23 33 -58 24 -36 46 -66
51 -66 4 -1 7 64 7 144 l0 146 63 -3 62 -3 0 -254 c1 -242 2 -255 20 -261 15
-5 13 -8 -14 -13 -19 -4 -50 -7 -71 -7 -35 0 -40 4 -86 73 -79 118 -175 252
-182 254 -4 2 -7 -69 -6 -157 0 -181 3 -176 -82 -168 l-39 4 -3 268 -2 268 63
-4 c46 -3 69 -9 83 -23z m814 12 c9 -7 49 -105 89 -220 73 -205 100 -264 101
-223 0 29 16 8 28 -35 l10 -37 -37 -6 c-20 -3 -55 -6 -78 -6 -40 0 -43 2 -61
43 -11 23 -22 50 -25 60 -6 15 -20 17 -111 17 l-105 0 -12 -42 c-7 -24 -12
-48 -11 -55 2 -7 -20 -12 -64 -15 -36 -1 -67 -2 -69 0 -9 10 161 461 193 510
12 19 23 22 76 22 33 0 68 -6 76 -13z m713 6 c2 -5 2 -27 -1 -50 l-4 -43 -72
0 c-39 0 -77 -4 -83 -8 -9 -6 -12 -60 -10 -215 l2 -207 -31 -6 c-17 -3 -46 -4
-64 -2 l-34 3 2 200 c1 110 -1 208 -4 219 -6 17 -13 18 -72 13 -42 -4 -70 -3
-79 4 -13 12 -18 80 -6 92 9 10 451 9 456 0z m269 -3 c2 -5 1 -126 -2 -267
l-5 -258 -60 0 -60 0 -3 268 -2 267 64 0 c35 0 66 -4 68 -10z m1000 -12 c36
-34 89 -104 149 -193 l54 -80 3 148 3 147 62 0 63 0 0 -265 -1 -265 -56 0
c-55 0 -56 0 -79 43 -21 38 -122 189 -174 260 -11 15 -23 27 -28 27 -4 0 -7
-74 -5 -165 l2 -165 -62 0 -63 0 0 265 0 265 54 0 c43 0 60 -5 78 -22z m918
-228 c55 -135 104 -253 109 -262 6 -9 7 -19 3 -22 -11 -6 -127 0 -140 8 -6 3
-18 29 -27 56 l-17 50 -103 0 -104 0 -16 -55 -16 -55 -69 0 c-39 0 -70 2 -70
5 0 3 4 13 10 23 5 9 30 71 55 137 24 66 63 165 85 220 23 55 46 110 51 123 8
21 14 23 80 20 l71 -3 98 -245z m372 38 l3 -213 102 3 c137 5 139 4 135 -58
l-4 -50 -106 -1 c-59 0 -141 -2 -182 -2 l-75 -2 -3 268 -2 267 65 0 65 0 2
-212z m18818 208 c0 -2 -7 -6 -15 -10 -8 -3 -15 -1 -15 4 0 6 7 10 15 10 8 0
15 -2 15 -4z m-3413 -81 c-8 -22 -19 -41 -26 -43 -10 -3 -10 0 -2 16 6 11 16
33 21 48 16 41 22 22 7 -21z m-44 -102 c-24 -40 -26 -41 -18 -13 6 21 21 39
33 40 1 0 -5 -12 -15 -27z m-27 -69 c-4 -9 -9 -15 -11 -12 -3 3 -3 13 1 22 4
9 9 15 11 12 3 -3 3 -13 -1 -22z m-30 -56 c-11 -15 -16 -18 -16 -7 0 16 21 42
28 34 2 -2 -3 -14 -12 -27z m-21561 -103 c65 -26 127 -110 124 -168 -1 -17 -4
-14 -11 11 -20 59 -53 32 -57 -47 -4 -89 -38 -149 -103 -182 -110 -56 -240
-14 -292 95 -20 42 -21 125 -2 170 21 51 80 104 134 120 49 14 172 15 207 1z
m-3501 -20 c49 -21 92 -79 80 -109 -5 -14 -9 -14 -26 -2 -31 22 -47 10 -41
-28 3 -18 0 -58 -6 -88 -23 -107 -116 -177 -219 -165 -218 26 -263 303 -65
398 32 16 54 18 142 13 57 -3 118 -12 135 -19z m433 15 c57 1 123 -42 143 -94
12 -34 8 -43 -10 -21 -12 14 -15 14 -30 0 -13 -12 -17 -26 -13 -54 18 -132
-98 -255 -223 -237 -183 25 -255 217 -132 351 42 47 98 66 173 59 33 -3 75 -5
92 -4z m566 -13 c15 -7 27 -15 27 -19 0 -5 7 -8 15 -8 9 0 21 -12 28 -27 6
-16 16 -31 22 -35 5 -4 6 -10 3 -14 -4 -3 -14 1 -22 9 -9 8 -24 13 -34 10 -17
-4 -19 -12 -14 -72 13 -183 -136 -293 -291 -215 -63 31 -94 68 -110 131 -26
100 15 193 105 237 49 25 59 26 148 20 52 -3 107 -11 123 -17z m447 5 c60 -9
87 -21 111 -49 22 -26 41 -73 29 -73 -6 0 -10 6 -10 14 0 7 -7 19 -15 26 -12
10 -15 10 -15 0 0 -9 -4 -9 -17 1 -15 12 -16 12 -9 -6 4 -11 10 -46 13 -77 9
-90 -22 -155 -97 -208 -29 -21 -46 -25 -107 -25 -63 0 -76 3 -115 30 -58 41
-91 107 -89 182 1 60 19 99 68 145 60 58 95 63 253 40z m492 9 c77 -10 132
-45 154 -98 19 -45 17 -52 -6 -24 -11 13 -20 18 -20 12 0 -6 -7 -11 -15 -11
-11 0 -15 -12 -15 -51 0 -79 -19 -137 -59 -179 -81 -84 -218 -77 -300 16 -91
103 -61 257 62 318 55 28 90 31 199 17z m496 -1 c80 -11 116 -31 144 -82 20
-35 18 -41 -6 -32 -9 3 -13 11 -9 18 4 7 1 6 -9 -2 -10 -8 -14 -25 -12 -55 18
-216 -187 -335 -346 -200 -72 61 -93 184 -43 258 32 48 46 60 98 85 45 22 77
24 183 10z m511 -1 c77 -14 113 -37 146 -97 27 -47 32 -67 12 -41 -7 8 -22 18
-35 21 -22 6 -22 4 -16 -41 18 -139 -91 -261 -222 -248 -113 11 -194 104 -194
222 0 44 46 127 84 153 62 43 115 50 225 31z m22067 -64 c-4 -20 -13 -35 -21
-35 -8 0 -12 6 -10 13 20 55 26 69 31 64 4 -3 3 -22 0 -42z m-25090 -450 c41
-3 97 -26 119 -49 27 -29 48 -70 36 -74 -6 -2 -9 -9 -5 -15 3 -7 -1 -4 -9 5
-8 10 -18 14 -22 10 -5 -4 -5 2 -1 13 7 19 6 19 -10 4 -11 -12 -17 -38 -19
-86 -3 -79 -20 -119 -70 -167 -124 -120 -345 -19 -345 158 0 43 38 133 65 156
8 7 40 23 72 36 45 19 68 23 103 18 25 -4 64 -8 86 -9z m578 -12 c64 -33 119
-120 66 -106 -11 3 -20 0 -20 -6 0 -5 -7 -8 -15 -5 -12 5 -15 -6 -15 -62 0
-58 -5 -77 -30 -120 -63 -111 -210 -136 -305 -52 -79 68 -97 191 -42 274 29
42 89 82 141 94 47 10 187 -1 220 -17z m486 5 c19 -6 49 -26 67 -45 35 -35 43
-56 18 -47 -10 4 -15 0 -15 -11 0 -11 -5 -15 -15 -11 -12 4 -15 -6 -15 -62 -1
-186 -155 -285 -307 -196 -71 41 -97 85 -101 168 -3 65 -1 75 27 118 35 54 66
77 127 93 50 12 162 9 214 -7z m507 -5 c39 -14 93 -72 93 -99 0 -5 -4 -3 -8 4
-5 7 -21 15 -37 18 -23 4 -26 2 -20 -13 4 -10 10 -45 12 -78 12 -155 -128
-271 -268 -223 -107 36 -168 150 -139 257 14 55 81 123 141 144 52 18 161 13
226 -10z m485 6 c61 -16 141 -100 123 -129 -7 -12 -26 -13 -24 -2 3 19 -3 22
-21 12 -17 -9 -20 -21 -20 -71 0 -140 -107 -235 -242 -215 -50 8 -127 65 -152
115 -41 82 -26 167 42 234 72 70 166 88 294 56z m528 -9 c19 -10 48 -32 64
-49 28 -29 29 -32 17 -72 -11 -38 -13 -40 -26 -22 -13 16 -14 14 -15 -23 -1
-156 -128 -260 -266 -219 -55 16 -125 80 -144 131 -37 96 19 212 125 260 43
19 61 22 130 17 46 -3 95 -13 115 -23z m506 0 c46 -20 89 -70 96 -113 l5 -28
-19 21 c-22 24 -32 26 -24 5 3 -8 2 -15 -3 -15 -4 0 -11 -29 -14 -65 -3 -35
-13 -77 -21 -92 -76 -146 -298 -145 -371 1 -37 73 -34 137 8 204 18 29 44 60
57 69 58 41 207 47 286 13z m-3506 -380 c0 -5 -15 -9 -32 -9 l-33 1 30 8 c17
4 31 8 33 9 1 0 2 -3 2 -9z m3004 -122 c32 -16 66 -50 82 -80 16 -31 18 -52 5
-44 -5 3 -11 -4 -14 -16 -5 -18 -8 -19 -21 -8 -14 11 -16 8 -16 -24 0 -108
-48 -182 -137 -216 -67 -25 -117 -20 -174 16 -167 105 -133 322 61 385 32 11
186 2 214 -13z"/>
<path d="M6641 4044 c0 -11 3 -14 6 -6 3 7 2 16 -1 19 -3 4 -6 -2 -5 -13z"/>
<path d="M1600 3650 c0 -5 5 -10 11 -10 5 0 7 5 4 10 -3 6 -8 10 -11 10 -2 0
-4 -4 -4 -10z"/>
<path d="M1700 3216 c0 -9 5 -16 10 -16 6 0 10 4 10 9 0 6 -4 13 -10 16 -5 3
-10 -1 -10 -9z"/>
<path d="M1747 2979 c4 -13 8 -18 11 -10 2 7 -1 18 -6 23 -8 8 -9 4 -5 -13z"/>
<path d="M3890 4239 c0 -16 -66 -146 -105 -209 -29 -46 -50 -138 -41 -181 7
-39 56 -107 53 -75 -3 30 29 27 53 -6 12 -17 41 -38 64 -49 135 -60 229 115
155 289 -35 81 -178 266 -179 231z"/>
<path d="M4616 3547 c3 -10 9 -15 12 -12 3 3 0 11 -7 18 -10 9 -11 8 -5 -6z"/>
<path d="M4616 3505 c4 -8 10 -12 15 -9 11 6 2 24 -11 24 -5 0 -7 -7 -4 -15z"/>
<path d="M4641 3374 c0 -11 3 -14 6 -6 3 7 2 16 -1 19 -3 4 -6 -2 -5 -13z"/>
<path d="M25505 4920 c-3 -5 -1 -10 4 -10 6 0 11 5 11 10 0 6 -2 10 -4 10 -3
0 -8 -4 -11 -10z"/>
<path d="M25477 4853 l-17 -38 25 28 c25 28 32 47 17 47 -5 0 -16 -17 -25 -37z"/>
<path d="M11772 3339 c-111 -19 -175 -75 -186 -164 -5 -40 -3 -56 13 -81 70
-113 221 -123 334 -23 69 60 109 138 120 237 l5 42 -116 -1 c-65 -1 -141 -5
-170 -10z"/>
<path d="M23091 3332 c-70 -20 -136 -81 -146 -134 -17 -91 33 -173 116 -188
87 -16 145 4 214 76 24 24 48 44 54 44 26 0 102 195 83 215 -13 13 -269 3
-321 -13z"/>
<path d="M29212 3331 c-92 -32 -142 -97 -142 -183 0 -60 30 -105 87 -130 87
-39 178 -6 243 89 33 48 89 90 76 57 -17 -42 -16 -46 4 -14 36 54 58 111 62
155 l3 40 -140 2 c-113 1 -150 -2 -193 -16z"/>
<path d="M24970 3505 c-7 -9 -11 -18 -8 -20 3 -3 11 1 18 10 7 9 11 18 8 20
-3 3 -11 -1 -18 -10z"/>
<path d="M25732 2028 c-43 -21 -67 -76 -67 -153 1 -105 29 -144 123 -170 15
-4 35 1 58 14 19 12 42 21 50 21 22 0 54 78 54 134 0 62 -29 125 -69 149 -33
19 -113 22 -149 5z"/>
<path d="M10561 2004 c-76 -63 -62 -233 22 -284 51 -31 103 -26 142 13 74 74
69 216 -9 279 -34 28 -117 24 -155 -8z"/>
<path d="M14291 2027 c-76 -39 -100 -188 -45 -272 37 -57 133 -72 185 -28 80
67 81 208 1 281 -28 25 -44 32 -76 32 -23 0 -52 -6 -65 -13z"/>
<path d="M15702 2032 c-9 -6 -12 -30 -10 -77 l3 -69 55 3 c72 3 100 21 100 65
0 52 -27 78 -86 83 -27 2 -55 0 -62 -5z"/>
<path d="M16292 1916 c-18 -45 -32 -88 -32 -95 0 -7 24 -11 71 -11 51 0 70 3
67 13 -10 37 -64 177 -69 177 -3 0 -20 -38 -37 -84z"/>
<path d="M23022 1784 l3 -79 45 -3 c31 -2 55 4 78 18 27 17 32 25 32 60 0 50
-29 72 -106 78 l-55 5 3 -79z"/>
<path d="M28020 1916 c-18 -47 -29 -89 -26 -95 6 -9 136 -17 136 -8 0 1 -14
35 -30 76 -17 40 -30 79 -30 86 0 40 -21 15 -50 -59z"/>
<path d="M30217 2012 c-23 -25 -21 -68 3 -92 15 -15 33 -20 78 -20 l57 0 0 65
1 65 -62 0 c-46 0 -65 -4 -77 -18z"/>
<path d="M30057 1683 c-4 -3 -7 -11 -7 -17 0 -6 5 -5 12 2 6 6 9 14 7 17 -3 3
-9 2 -12 -2z"/>
<path d="M31505 1852 c-3 -3 -5 -38 -5 -79 l0 -73 35 0 c39 0 105 24 117 43
17 26 8 66 -18 84 -26 16 -119 34 -129 25z"/>
<path d="M9115 1908 c-17 -45 -31 -86 -33 -90 -2 -4 28 -8 67 -8 39 0 71 2 71
4 0 2 -13 36 -30 76 -16 40 -30 79 -30 86 0 34 -18 7 -45 -68z"/>
<path d="M11945 1978 c-7 -19 -45 -130 -52 -150 -5 -16 2 -18 60 -18 36 0 68
4 71 8 3 5 -1 20 -8 34 -8 14 -21 49 -31 77 -17 53 -32 71 -40 49z"/>
</g>
</svg>
